# xmcd CD database file
#
# Track frame offsets:
#	150
#	25022
#	45620
#	68782
#	94229
#	115628
#	137517
#	162960
#	183481
#	205906
#	226283
#	247934
#
# Disc length: 3576 seconds
#
# Revision: 0
# Processed by: cddbd v1.5.2PL0 Copyright (c) Steve Scherf et al.
# Submitted via: CDex 1.74
#
DISCID=960df60c
DTITLE=Various Artist - Winterlounge 2008 - Chill-Out Music
DYEAR=2008
DGENRE=Jazz
TTITLE0=Bermuda Gold
TTITLE1=Slow Down
TTITLE2=Above the Clouds
TTITLE3=I wish
TTITLE4=Around the sun
TTITLE5=It's a circle
TTITLE6=Seductora
TTITLE7=Futuresque
TTITLE8=So chilled out
TTITLE9=Life is good
TTITLE10=La Vida en la Playa de Rio
TTITLE11=Chilling Bells
EXTD=YEAR: 2008
EXTT0=
EXTT1=
EXTT2=
EXTT3=
EXTT4=
EXTT5=
EXTT6=
EXTT7=
EXTT8=
EXTT9=
EXTT10=
EXTT11=
PLAYORDER=
